<svg width="55" height="55" viewBox="0 0 55 55" fill="none" xmlns="http://www.w3.org/2000/svg">
<path d="M35.7294 41.25L41.6831 51.5625H37.7163L31.7625 41.25H23.2581L17.3044 51.5625H13.3375L19.2913 41.25H8.59375C8.13791 41.25 7.70074 41.0689 7.37841 40.7466C7.05608 40.4243 6.875 39.9871 6.875 39.5312V10.3125H3.4375C2.98166 10.3125 2.54449 10.1314 2.22216 9.80909C1.89983 9.48676 1.71875 9.04959 1.71875 8.59375C1.71875 8.13791 1.89983 7.70074 2.22216 7.37841C2.54449 7.05608 2.98166 6.875 3.4375 6.875H51.5625C52.0183 6.875 52.4555 7.05608 52.7778 7.37841C53.1002 7.70074 53.2812 8.13791 53.2812 8.59375C53.2812 9.04959 53.1002 9.48676 52.7778 9.80909C52.4555 10.1314 52.0183 10.3125 51.5625 10.3125H48.125V39.5312C48.125 39.9871 47.9439 40.4243 47.6216 40.7466C47.2993 41.0689 46.8621 41.25 46.4062 41.25H35.7294ZM44.6875 10.3125H10.3125V37.8125H44.6875V10.3125ZM18.9062 24.0625C19.3621 24.0625 19.7993 24.2436 20.1216 24.5659C20.4439 24.8882 20.625 25.3254 20.625 25.7812V29.2188C20.625 29.6746 20.4439 30.1118 20.1216 30.4341C19.7993 30.7564 19.3621 30.9375 18.9062 30.9375C18.4504 30.9375 18.0132 30.7564 17.6909 30.4341C17.3686 30.1118 17.1875 29.6746 17.1875 29.2188V25.7812C17.1875 25.3254 17.3686 24.8882 17.6909 24.5659C18.0132 24.2436 18.4504 24.0625 18.9062 24.0625ZM27.5 20.625C27.9558 20.625 28.393 20.8061 28.7153 21.1284C29.0377 21.4507 29.2188 21.8879 29.2188 22.3438V29.2188C29.2188 29.6746 29.0377 30.1118 28.7153 30.4341C28.393 30.7564 27.9558 30.9375 27.5 30.9375C27.0442 30.9375 26.607 30.7564 26.2847 30.4341C25.9623 30.1118 25.7812 29.6746 25.7812 29.2188V22.3438C25.7812 21.8879 25.9623 21.4507 26.2847 21.1284C26.607 20.8061 27.0442 20.625 27.5 20.625ZM36.0938 17.1875C36.5496 17.1875 36.9868 17.3686 37.3091 17.6909C37.6314 18.0132 37.8125 18.4504 37.8125 18.9062V29.2188C37.8125 29.6746 37.6314 30.1118 37.3091 30.4341C36.9868 30.7564 36.5496 30.9375 36.0938 30.9375C35.6379 30.9375 35.2007 30.7564 34.8784 30.4341C34.5561 30.1118 34.375 29.6746 34.375 29.2188V18.9062C34.375 18.4504 34.5561 18.0132 34.8784 17.6909C35.2007 17.3686 35.6379 17.1875 36.0938 17.1875Z" fill="#F24E1E"/>
</svg>
