<svg width="55" height="55" viewBox="0 0 55 55" fill="none" xmlns="http://www.w3.org/2000/svg">
<path d="M18.9062 18.9062V30.0231C18.9106 31.6498 19.3744 33.2422 20.2445 34.6167C21.1145 35.9912 22.3552 37.0919 23.8236 37.7919L27.5 39.5312L31.1764 37.7902C32.6448 37.0902 33.8855 35.9895 34.7555 34.615C35.6256 33.2405 36.0894 31.6481 36.0938 30.0214V18.9062H18.9062ZM32.6562 30.0231C32.6532 30.9987 32.3746 31.9535 31.8524 32.7776C31.3303 33.6017 30.586 34.2615 29.7052 34.6809L27.5 35.7277L25.2948 34.6844C24.4135 34.2647 23.6688 33.6044 23.1466 32.7796C22.6245 31.9549 22.3461 30.9993 22.3438 30.0231V22.3438H32.6562V30.0231Z" fill="#F24E1E"/>
<path d="M52.2741 29.9303C52.9185 29.2857 53.2805 28.4115 53.2805 27.5C53.2805 26.5885 52.9185 25.7143 52.2741 25.0697L42.3277 15.1233L47.312 10.2042C48.0472 10.3872 48.8223 10.3225 49.5169 10.02C50.2116 9.71759 50.787 9.19432 51.1539 8.53144C51.5207 7.86856 51.6586 7.10313 51.546 6.3539C51.4334 5.60468 51.0767 4.91355 50.5312 4.38776C49.9857 3.86198 49.282 3.53092 48.5291 3.44596C47.7763 3.361 47.0164 3.52689 46.3675 3.91789C45.7185 4.30889 45.2168 4.90314 44.94 5.60843C44.6633 6.31373 44.6271 7.09063 44.837 7.8186L39.8974 12.693L29.9303 2.72423C29.2857 2.0798 28.4115 1.71777 27.5 1.71777C26.5885 1.71777 25.7143 2.0798 25.0697 2.72423L15.1233 12.6741L10.2042 7.68626C10.3863 6.95089 10.3206 6.17599 10.0173 5.48178C9.71404 4.78756 9.19014 4.21283 8.52689 3.84675C7.86364 3.48067 7.09812 3.34371 6.34908 3.45711C5.60005 3.57051 4.90937 3.92793 4.3842 4.47392C3.85903 5.01992 3.52872 5.72397 3.44452 6.47684C3.36033 7.22972 3.52694 7.98934 3.91852 8.63786C4.3101 9.28639 4.90476 9.78755 5.61024 10.0636C6.31572 10.3397 7.09259 10.3752 7.82032 10.1647L12.693 15.1027L2.72423 25.0697C2.0798 25.7143 1.71777 26.5885 1.71777 27.5C1.71777 28.4115 2.0798 29.2857 2.72423 29.9303L12.693 39.8974L7.82032 44.8353C7.09412 44.6262 6.31921 44.6624 5.6157 44.9384C4.91218 45.2144 4.31935 45.7147 3.9291 46.3619C3.53886 47.0091 3.37298 47.7669 3.45719 48.5179C3.5414 49.2689 3.87099 49.9712 4.39488 50.5158C4.91876 51.0605 5.60768 51.4171 6.35485 51.5305C7.10202 51.6438 7.86572 51.5075 8.52756 51.1427C9.18939 50.7779 9.71242 50.205 10.0156 49.5127C10.3187 48.8205 10.385 48.0475 10.2042 47.3138L15.1233 42.3294L25.0697 52.2741C25.7143 52.9185 26.5885 53.2805 27.5 53.2805C28.4115 53.2805 29.2857 52.9185 29.9303 52.2741L39.8991 42.307L44.8353 47.1814C44.6262 47.9076 44.6624 48.6825 44.9384 49.386C45.2144 50.0896 45.7147 50.6824 46.3619 51.0726C47.0091 51.4629 47.7669 51.6288 48.5179 51.5445C49.2689 51.4603 49.9712 51.1307 50.5158 50.6069C51.0605 50.083 51.4171 49.3941 51.5305 48.6469C51.6438 47.8997 51.5075 47.136 51.1427 46.4742C50.7779 45.8123 50.205 45.2893 49.5127 44.9862C48.8205 44.683 48.0475 44.6167 47.3138 44.7975L42.3294 39.8767L52.2741 29.9303ZM27.5 49.8438L5.15626 27.5L27.5 5.15626L49.8438 27.5L27.5 49.8438Z" fill="#F24E1E"/>
</svg>
