<svg width="55" height="55" viewBox="0 0 55 55" fill="none" xmlns="http://www.w3.org/2000/svg">
<path d="M7.24418 10.2415C9.90266 7.58251 13.4683 6.02729 17.2258 5.88788C20.9832 5.74846 24.6543 7.03516 27.5025 9.4898C30.3482 7.03925 34.0145 5.754 37.7674 5.89134C41.5203 6.02868 45.0828 7.57849 47.7418 10.2305C50.4007 12.8825 51.9598 16.4409 52.107 20.1935C52.2542 23.946 50.9785 27.6156 48.5354 30.4677L30.7406 48.3198C29.9231 49.1376 28.8266 49.6162 27.671 49.6596C26.5154 49.7029 25.3861 49.3078 24.5096 48.5536L24.2575 48.3221L6.46501 30.4677C4.02322 27.6181 2.74696 23.9518 2.89142 20.2019C3.03588 16.452 4.59039 12.8948 7.24418 10.2415ZM10.4846 13.4819C8.61057 15.3564 7.5303 17.8806 7.468 20.5305C7.4057 23.1804 8.36615 25.7526 10.15 27.7131L10.4846 28.0661L27.5002 45.0817L39.6529 32.9244L31.5519 24.8256L29.1227 27.2548C27.8336 28.5445 26.0849 29.2693 24.2614 29.2698C22.4379 29.2702 20.6889 28.5462 19.3992 27.2571C18.1095 25.968 17.3847 24.2193 17.3842 22.3958C17.3838 20.5723 18.1078 18.8233 19.3969 17.5336L24.214 12.7142C22.2969 11.1842 19.8974 10.3874 17.446 10.4668C14.9945 10.5462 12.6516 11.4965 10.8375 13.1473L10.4846 13.4819ZM29.9317 19.9627C30.3614 19.5331 30.9442 19.2918 31.5519 19.2918C32.1596 19.2918 32.7423 19.5331 33.1721 19.9627L42.8933 29.684L44.5158 28.0661C46.4213 26.162 47.506 23.5879 47.5382 20.8944C47.5703 18.2009 46.5472 15.6017 44.6878 13.6527C42.8283 11.7038 40.2801 10.5597 37.588 10.4653C34.896 10.3708 32.2738 11.3334 30.2823 13.1473L29.9317 13.4819L22.6396 20.774C22.2424 21.1709 22.0047 21.6999 21.9718 22.2605C21.9388 22.8211 22.1129 23.3743 22.4608 23.815L22.6396 24.0144C23.0365 24.4116 23.5655 24.6492 24.1261 24.6822C24.6867 24.7151 25.2399 24.5411 25.6806 24.1931L25.88 24.0144L29.9317 19.9627Z" fill="#F24E1E"/>
</svg>
